<svg width="28" height="28" viewBox="0 0 28 28" fill="none" xmlns="http://www.w3.org/2000/svg">
<path d="M5 4C4.44772 4 4 4.44772 4 5C4 5.55228 4.44772 6 5 6V4ZM7 5L7.99705 4.9233C7.95698 4.40231 7.52254 4 7 4V5ZM23 8L23.9939 8.11043C24.0253 7.82773 23.9348 7.54503 23.7451 7.33308C23.5554 7.12113 23.2844 7 23 7V8ZM7.23077 8L6.23371 8.0767L7.23077 8ZM20.3387 17.1187L20.4099 18.1161L20.3387 17.1187ZM9.98405 17.8583L9.9128 16.8608L9.98405 17.8583ZM5 6H7V4H5V6ZM10.0553 18.8557L20.4099 18.1161L20.2674 16.1212L9.9128 16.8608L10.0553 18.8557ZM23.1778 15.455L23.9939 8.11043L22.0061 7.88957L21.19 15.2342L23.1778 15.455ZM6.00295 5.0767L6.23371 8.0767L8.22782 7.9233L7.99705 4.9233L6.00295 5.0767ZM6.23371 8.0767L6.85039 16.0935L8.8445 15.9401L8.22782 7.9233L6.23371 8.0767ZM23 7H7.23077V9H23V7ZM20.4099 18.1161C21.8537 18.013 23.018 16.8937 23.1778 15.455L21.19 15.2342C21.1368 15.7137 20.7487 16.0868 20.2674 16.1212L20.4099 18.1161ZM9.9128 16.8608C9.36404 16.9 8.88669 16.4886 8.8445 15.9401L6.85039 16.0935C6.97697 17.739 8.40903 18.9733 10.0553 18.8557L9.9128 16.8608Z" fill="#292929"/>
<rect x="10.5" y="22.5" width="0.01" height="0.01" stroke="#292929" stroke-width="2" stroke-linejoin="round"/>
<rect x="19.5" y="22.5" width="0.01" height="0.01" stroke="#292929" stroke-width="2" stroke-linejoin="round"/>
</svg>
